<?xml version="1.0" encoding="UTF-8"?>
<!DOCTYPE svg PUBLIC "-//W3C//DTD SVG 1.1//EN" "http://www.w3.org/Graphics/SVG/1.1/DTD/svg11.dtd">
<svg xmlns="http://www.w3.org/2000/svg" version="1.1" width="426px" height="146px" style="shape-rendering:geometricPrecision; text-rendering:geometricPrecision; image-rendering:optimizeQuality; fill-rule:evenodd; clip-rule:evenodd" xmlns:xlink="http://www.w3.org/1999/xlink">
<g><path style="opacity:1" fill="#e4a600" d="M -0.5,-0.5 C 141.5,-0.5 283.5,-0.5 425.5,-0.5C 425.5,48.1667 425.5,96.8333 425.5,145.5C 283.5,145.5 141.5,145.5 -0.5,145.5C -0.5,96.8333 -0.5,48.1667 -0.5,-0.5 Z"/></g>
<g><path style="opacity:1" fill="#fefdfa" d="M 18.5,24.5 C 148.5,24.5 278.5,24.5 408.5,24.5C 408.5,56.5 408.5,88.5 408.5,120.5C 278.5,120.5 148.5,120.5 18.5,120.5C 18.5,88.5 18.5,56.5 18.5,24.5 Z"/></g>
<g><path style="opacity:1" fill="#e7b227" d="M 398.5,111.5 C 398.5,85.8333 398.5,60.1667 398.5,34.5C 274.833,34.5 151.167,34.5 27.5,34.5C 27.5,60.1667 27.5,85.8333 27.5,111.5C 26.5022,85.672 26.1689,59.672 26.5,33.5C 150.833,33.5 275.167,33.5 399.5,33.5C 399.831,59.672 399.498,85.672 398.5,111.5 Z"/></g>
<g><path style="opacity:1" fill="#e4a70b" d="M 398.5,111.5 C 274.833,111.5 151.167,111.5 27.5,111.5C 27.5,85.8333 27.5,60.1667 27.5,34.5C 151.167,34.5 274.833,34.5 398.5,34.5C 398.5,60.1667 398.5,85.8333 398.5,111.5 Z"/></g>
<g><path style="opacity:1" fill="#fefdfa" d="M 35.5,42.5 C 78.8333,42.5 122.167,42.5 165.5,42.5C 165.5,62.5 165.5,82.5 165.5,102.5C 122.167,102.5 78.8333,102.5 35.5,102.5C 35.5,82.5 35.5,62.5 35.5,42.5 Z"/></g>
<g><path style="opacity:1" fill="#fbefd3" d="M 238.5,65.5 C 240.607,64.5318 242.941,64.1984 245.5,64.5C 245.5,62.8333 245.5,61.1667 245.5,59.5C 238.167,59.5 230.833,59.5 223.5,59.5C 223.5,61.1667 223.5,62.8333 223.5,64.5C 226.059,64.1984 228.393,64.5318 230.5,65.5C 227.833,65.5 225.167,65.5 222.5,65.5C 222.5,63.1667 222.5,60.8333 222.5,58.5C 230.5,58.5 238.5,58.5 246.5,58.5C 246.5,60.8333 246.5,63.1667 246.5,65.5C 243.833,65.5 241.167,65.5 238.5,65.5 Z"/></g>
<g><path style="opacity:1" fill="#e7b029" d="M 53.5,73.5 C 51.3926,72.5318 49.0593,72.1984 46.5,72.5C 46.5,76.5 46.5,80.5 46.5,84.5C 45.5,84.5 44.5,84.5 43.5,84.5C 43.5,75.8333 43.5,67.1667 43.5,58.5C 44.5,58.5 45.5,58.5 46.5,58.5C 46.5,62.1667 46.5,65.8333 46.5,69.5C 54.1228,69.9972 58.1228,66.3306 58.5,58.5C 59.9778,58.238 61.3112,58.5713 62.5,59.5C 61.4462,64.0087 59.4462,68.0087 56.5,71.5C 58.8333,75.5 61.1667,79.5 63.5,83.5C 62.1667,84.8333 60.8333,84.8333 59.5,83.5C 57.4741,80.1032 55.4741,76.7699 53.5,73.5 Z"/></g>
<g><path style="opacity:1" fill="#e7b02a" d="M 80.5,57.5 C 93.0274,57.8547 98.5274,64.1881 97,76.5C 91.2838,84.976 83.7838,86.8093 74.5,82C 70.8201,77.0984 69.6534,71.5984 71,65.5C 73.3616,61.7553 76.5283,59.0886 80.5,57.5 Z"/></g>
<g><path style="opacity:1" fill="#e6ad1a" d="M 103.5,58.5 C 110.5,58.5 117.5,58.5 124.5,58.5C 124.5,59.5 124.5,60.5 124.5,61.5C 121.5,61.5 118.5,61.5 115.5,61.5C 115.5,69.1667 115.5,76.8333 115.5,84.5C 114.5,84.5 113.5,84.5 112.5,84.5C 112.5,76.8333 112.5,69.1667 112.5,61.5C 109.5,61.5 106.5,61.5 103.5,61.5C 103.5,60.5 103.5,59.5 103.5,58.5 Z"/></g>
<g><path style="opacity:1" fill="#e8b12e" d="M 140.5,57.5 C 155.808,57.948 160.975,65.2813 156,79.5C 151.117,84.2037 145.283,85.7037 138.5,84C 135.667,82.5 133.5,80.3333 132,77.5C 129.015,68.1143 131.849,61.4477 140.5,57.5 Z"/></g>
<g><path style="opacity:1" fill="#fefaf2" d="M 178.5,71.5 C 177.701,68.5701 177.368,65.5701 177.5,62.5C 183.513,55.9398 189.68,55.9398 196,62.5C 196.49,63.7932 196.657,65.1266 196.5,66.5C 192.112,66.432 188.112,65.432 184.5,63.5C 184.238,64.9778 184.571,66.3112 185.5,67.5C 189.913,68.4653 193.746,70.4653 197,73.5C 198.643,78.4276 197.143,81.9276 192.5,84C 187.771,84.9956 183.271,84.4956 179,82.5C 177.441,80.7834 176.608,78.7834 176.5,76.5C 181.239,76.4373 185.573,77.4373 189.5,79.5C 189.714,77.8561 189.38,76.3561 188.5,75C 184.961,74.3208 181.628,73.1542 178.5,71.5 Z"/></g>
<g><path style="opacity:1" fill="#fef9f0" d="M 201.5,58.5 C 207.5,58.5 213.5,58.5 219.5,58.5C 219.5,60.5 219.5,62.5 219.5,64.5C 216.167,64.5 212.833,64.5 209.5,64.5C 209.5,65.8333 209.5,67.1667 209.5,68.5C 212.5,68.5 215.5,68.5 218.5,68.5C 218.5,70.5 218.5,72.5 218.5,74.5C 215.5,74.5 212.5,74.5 209.5,74.5C 209.5,75.8333 209.5,77.1667 209.5,78.5C 213.167,78.5 216.833,78.5 220.5,78.5C 220.5,80.5 220.5,82.5 220.5,84.5C 214.167,84.5 207.833,84.5 201.5,84.5C 201.5,75.8333 201.5,67.1667 201.5,58.5 Z"/></g>
<g><path style="opacity:1" fill="#fefdf9" d="M 238.5,65.5 C 238.5,71.8333 238.5,78.1667 238.5,84.5C 236.167,84.5 233.833,84.5 231.5,84.5C 231.823,77.9779 231.49,71.6446 230.5,65.5C 228.393,64.5318 226.059,64.1984 223.5,64.5C 223.5,62.8333 223.5,61.1667 223.5,59.5C 230.833,59.5 238.167,59.5 245.5,59.5C 245.5,61.1667 245.5,62.8333 245.5,64.5C 242.941,64.1984 240.607,64.5318 238.5,65.5 Z"/></g>
<g><path style="opacity:1" fill="#fefcf8" d="M 250.5,58.5 C 252.833,58.5 255.167,58.5 257.5,58.5C 257.5,67.1667 257.5,75.8333 257.5,84.5C 255.167,84.5 252.833,84.5 250.5,84.5C 250.5,75.8333 250.5,67.1667 250.5,58.5 Z"/></g>
<g><path style="opacity:1" fill="#fefbf6" d="M 272.5,73.5 C 272.44,72.9569 272.107,72.6236 271.5,72.5C 270.509,76.4454 270.176,80.4454 270.5,84.5C 268.167,84.5 265.833,84.5 263.5,84.5C 263.5,75.8333 263.5,67.1667 263.5,58.5C 265.924,58.1924 268.257,58.5258 270.5,59.5C 273.167,63.1667 275.833,66.8333 278.5,70.5C 279.491,66.5546 279.824,62.5546 279.5,58.5C 281.833,58.5 284.167,58.5 286.5,58.5C 286.5,67.1667 286.5,75.8333 286.5,84.5C 284.473,84.6621 282.473,84.4955 280.5,84C 277.934,80.3416 275.268,76.8416 272.5,73.5 Z"/></g>
<g><path style="opacity:1" fill="#fefbf4" d="M 317.5,65.5 C 315.393,66.4682 313.059,66.8016 310.5,66.5C 301.988,62.6642 298.155,65.3308 299,74.5C 302.484,79.3666 306.318,79.6999 310.5,75.5C 308.257,74.5258 305.924,74.1924 303.5,74.5C 303.5,72.8333 303.5,71.1667 303.5,69.5C 308.5,69.5 313.5,69.5 318.5,69.5C 318.274,81.9731 311.941,86.8065 299.5,84C 291.958,80.0155 289.458,73.8488 292,65.5C 297.976,56.8629 305.476,55.3629 314.5,61C 316.141,62.129 317.141,63.629 317.5,65.5 Z"/></g>
<g><path style="opacity:1" fill="#fef9ef" d="M 322.5,58.5 C 325.167,58.5 327.833,58.5 330.5,58.5C 330.5,61.5 330.5,64.5 330.5,67.5C 331.873,67.6567 333.207,67.49 334.5,67C 336.11,64.6886 337.443,62.1886 338.5,59.5C 340.743,58.5258 343.076,58.1924 345.5,58.5C 344.518,63.2666 342.851,67.7666 340.5,72C 343.079,75.8198 345.412,79.8198 347.5,84C 344.446,84.8214 341.446,84.6548 338.5,83.5C 337.167,80.8333 335.833,78.1667 334.5,75.5C 333.311,74.5713 331.978,74.238 330.5,74.5C 330.5,77.8333 330.5,81.1667 330.5,84.5C 327.833,84.5 325.167,84.5 322.5,84.5C 322.5,75.8333 322.5,67.1667 322.5,58.5 Z"/></g>
<g><path style="opacity:1" fill="#fefaf3" d="M 358.5,58.5 C 361.187,58.3359 363.854,58.5026 366.5,59C 370.263,67.0212 373.596,75.1879 376.5,83.5C 373.914,84.48 371.247,84.8134 368.5,84.5C 368.427,81.0504 366.594,79.717 363,80.5C 359.406,79.717 357.573,81.0504 357.5,84.5C 354.753,84.8134 352.086,84.48 349.5,83.5C 352.35,75.0912 355.35,66.7579 358.5,58.5 Z"/></g>
<g><path style="opacity:1" fill="#fdf7ea" d="M 379.5,58.5 C 382.167,58.5 384.833,58.5 387.5,58.5C 387.5,67.1667 387.5,75.8333 387.5,84.5C 384.833,84.5 382.167,84.5 379.5,84.5C 379.5,75.8333 379.5,67.1667 379.5,58.5 Z"/></g>
<g><path style="opacity:1" fill="#fefbf6" d="M 79.5,61.5 C 90.8503,60.4128 95.3503,65.4128 93,76.5C 87.8966,82.2631 82.2299,82.9298 76,78.5C 71.8606,71.5982 73.0272,65.9315 79.5,61.5 Z"/></g>
<g><path style="opacity:1" fill="#fefcf7" d="M 140.5,61.5 C 151.041,60.5387 155.541,65.2054 154,75.5C 152.049,79.7146 148.716,81.7146 144,81.5C 139.265,81.4349 136.265,79.1015 135,74.5C 134.333,71.8333 134.333,69.1667 135,66.5C 136.73,64.5981 138.563,62.9314 140.5,61.5 Z"/></g>
<g><path style="opacity:1" fill="#f5dda0" d="M 317.5,65.5 C 318.043,65.56 318.376,65.8933 318.5,66.5C 315.691,67.8003 313.024,67.8003 310.5,66.5C 313.059,66.8016 315.393,66.4682 317.5,65.5 Z"/></g>
<g><path style="opacity:1" fill="#f0ca6d" d="M 177.5,62.5 C 177.368,65.5701 177.701,68.5701 178.5,71.5C 177.883,71.3893 177.383,71.056 177,70.5C 176.199,67.633 176.366,64.9664 177.5,62.5 Z"/></g>
<g><path style="opacity:1" fill="#f0cd71" d="M 272.5,73.5 C 271.833,77.1667 271.167,80.8333 270.5,84.5C 270.176,80.4454 270.509,76.4454 271.5,72.5C 272.107,72.6236 272.44,72.9569 272.5,73.5 Z"/></g>
<g><path style="opacity:1" fill="#f5e0a7" d="M 53.5,73.5 C 51.5,73.5 49.5,73.5 47.5,73.5C 47.815,77.3714 47.4816,81.0381 46.5,84.5C 46.5,80.5 46.5,76.5 46.5,72.5C 49.0593,72.1984 51.3926,72.5318 53.5,73.5 Z"/></g>
<g><path style="opacity:1" fill="#e9b73c" d="M 362.5,68.5 C 364.448,70.3204 365.448,72.6538 365.5,75.5C 363.833,75.5 362.167,75.5 360.5,75.5C 360.166,72.812 360.832,70.4786 362.5,68.5 Z"/></g>
<g><path style="opacity:1" fill="#e9b635" d="M 18.5,24.5 C 18.5,56.5 18.5,88.5 18.5,120.5C 148.5,120.5 278.5,120.5 408.5,120.5C 278.334,121.5 148.001,121.833 17.5,121.5C 17.1684,88.9957 17.5018,56.6624 18.5,24.5 Z"/></g>
</svg>
